<mxfile host="Electron" agent="Mozilla/5.0 (X11; Linux x86_64) AppleWebKit/537.36 (KHTML, like Gecko) draw.io/26.1.1 Chrome/132.0.6834.210 Electron/34.3.3 Safari/537.36" version="26.1.1">
  <diagram name="Page-1" id="aLKy41kNcSVif7WJQoE-">
    <mxGraphModel dx="1837" dy="1245" grid="1" gridSize="10" guides="1" tooltips="1" connect="1" arrows="1" fold="1" page="1" pageScale="1" pageWidth="1400" pageHeight="850" math="0" shadow="0">
      <root>
        <mxCell id="0" />
        <mxCell id="1" parent="0" />
        <mxCell id="Kzfv3EJHUvJdrAXewRau-40" value="" style="rounded=0;whiteSpace=wrap;html=1;fillColor=#f8cecc;strokeColor=#b85450;" parent="1" vertex="1">
          <mxGeometry x="480" y="50" width="510" height="270" as="geometry" />
        </mxCell>
        <mxCell id="Kzfv3EJHUvJdrAXewRau-41" value="PROJET X" style="rounded=1;whiteSpace=wrap;html=1;" parent="1" vertex="1">
          <mxGeometry x="510" y="80" width="90" height="90" as="geometry" />
        </mxCell>
        <mxCell id="Kzfv3EJHUvJdrAXewRau-43" value="PROJET X" style="rounded=1;whiteSpace=wrap;html=1;" parent="1" vertex="1">
          <mxGeometry x="630" y="80" width="90" height="90" as="geometry" />
        </mxCell>
        <mxCell id="Kzfv3EJHUvJdrAXewRau-44" value="PROJET X" style="rounded=1;whiteSpace=wrap;html=1;" parent="1" vertex="1">
          <mxGeometry x="750" y="80" width="90" height="90" as="geometry" />
        </mxCell>
        <mxCell id="Kzfv3EJHUvJdrAXewRau-45" value="PROJET X" style="rounded=1;whiteSpace=wrap;html=1;" parent="1" vertex="1">
          <mxGeometry x="870" y="80" width="90" height="90" as="geometry" />
        </mxCell>
        <mxCell id="Kzfv3EJHUvJdrAXewRau-46" value="PROJET X" style="rounded=1;whiteSpace=wrap;html=1;" parent="1" vertex="1">
          <mxGeometry x="510" y="200" width="90" height="90" as="geometry" />
        </mxCell>
        <mxCell id="Kzfv3EJHUvJdrAXewRau-47" value="PROJET X" style="rounded=1;whiteSpace=wrap;html=1;" parent="1" vertex="1">
          <mxGeometry x="630" y="200" width="90" height="90" as="geometry" />
        </mxCell>
        <mxCell id="Kzfv3EJHUvJdrAXewRau-48" value="PROJET X" style="rounded=1;whiteSpace=wrap;html=1;" parent="1" vertex="1">
          <mxGeometry x="750" y="200" width="90" height="90" as="geometry" />
        </mxCell>
        <mxCell id="Kzfv3EJHUvJdrAXewRau-49" value="PROJET X" style="rounded=1;whiteSpace=wrap;html=1;" parent="1" vertex="1">
          <mxGeometry x="870" y="200" width="90" height="90" as="geometry" />
        </mxCell>
        <mxCell id="Kzfv3EJHUvJdrAXewRau-50" value="LISTE PROJETS" style="text;html=1;align=center;verticalAlign=middle;whiteSpace=wrap;rounded=0;" parent="1" vertex="1">
          <mxGeometry x="480" y="20" width="510" height="30" as="geometry" />
        </mxCell>
        <mxCell id="Kzfv3EJHUvJdrAXewRau-51" value="" style="rounded=0;whiteSpace=wrap;html=1;fillColor=#f8cecc;strokeColor=#b85450;" parent="1" vertex="1">
          <mxGeometry x="480" y="360" width="510" height="270" as="geometry" />
        </mxCell>
        <mxCell id="Kzfv3EJHUvJdrAXewRau-52" value="LOT X" style="rounded=1;whiteSpace=wrap;html=1;" parent="1" vertex="1">
          <mxGeometry x="510" y="390" width="90" height="90" as="geometry" />
        </mxCell>
        <mxCell id="Kzfv3EJHUvJdrAXewRau-60" value="LISTE LOTS" style="text;html=1;align=center;verticalAlign=middle;whiteSpace=wrap;rounded=0;" parent="1" vertex="1">
          <mxGeometry x="480" y="330" width="510" height="30" as="geometry" />
        </mxCell>
        <mxCell id="Kzfv3EJHUvJdrAXewRau-61" value="" style="rounded=0;whiteSpace=wrap;html=1;fillColor=#f8cecc;strokeColor=#b85450;" parent="1" vertex="1">
          <mxGeometry x="480" y="670" width="510" height="270" as="geometry" />
        </mxCell>
        <mxCell id="Kzfv3EJHUvJdrAXewRau-69" value="ACTIVITE X" style="rounded=1;whiteSpace=wrap;html=1;" parent="1" vertex="1">
          <mxGeometry x="870" y="820" width="90" height="90" as="geometry" />
        </mxCell>
        <mxCell id="Kzfv3EJHUvJdrAXewRau-70" value="LISTE ACTIVITES" style="text;html=1;align=center;verticalAlign=middle;whiteSpace=wrap;rounded=0;" parent="1" vertex="1">
          <mxGeometry x="480" y="640" width="510" height="30" as="geometry" />
        </mxCell>
        <mxCell id="Kzfv3EJHUvJdrAXewRau-71" value="ACTIVITE X" style="rounded=1;whiteSpace=wrap;html=1;" parent="1" vertex="1">
          <mxGeometry x="750" y="820" width="90" height="90" as="geometry" />
        </mxCell>
        <mxCell id="Kzfv3EJHUvJdrAXewRau-72" value="ACTIVITE X" style="rounded=1;whiteSpace=wrap;html=1;" parent="1" vertex="1">
          <mxGeometry x="630" y="820" width="90" height="90" as="geometry" />
        </mxCell>
        <mxCell id="Kzfv3EJHUvJdrAXewRau-73" value="ACTIVITE X" style="rounded=1;whiteSpace=wrap;html=1;" parent="1" vertex="1">
          <mxGeometry x="630" y="700" width="90" height="90" as="geometry" />
        </mxCell>
        <mxCell id="Kzfv3EJHUvJdrAXewRau-74" value="ACTIVITE X" style="rounded=1;whiteSpace=wrap;html=1;" parent="1" vertex="1">
          <mxGeometry x="510" y="820" width="90" height="90" as="geometry" />
        </mxCell>
        <mxCell id="Kzfv3EJHUvJdrAXewRau-75" value="ACTIVITE X" style="rounded=1;whiteSpace=wrap;html=1;" parent="1" vertex="1">
          <mxGeometry x="510" y="700" width="90" height="90" as="geometry" />
        </mxCell>
        <mxCell id="Kzfv3EJHUvJdrAXewRau-76" value="ACTIVITE X" style="rounded=1;whiteSpace=wrap;html=1;" parent="1" vertex="1">
          <mxGeometry x="750" y="700" width="90" height="90" as="geometry" />
        </mxCell>
        <mxCell id="Kzfv3EJHUvJdrAXewRau-77" value="ACTIVITE X" style="rounded=1;whiteSpace=wrap;html=1;" parent="1" vertex="1">
          <mxGeometry x="870" y="700" width="90" height="90" as="geometry" />
        </mxCell>
        <mxCell id="Kzfv3EJHUvJdrAXewRau-78" value="LOT X" style="rounded=1;whiteSpace=wrap;html=1;" parent="1" vertex="1">
          <mxGeometry x="630" y="390" width="90" height="90" as="geometry" />
        </mxCell>
        <mxCell id="Kzfv3EJHUvJdrAXewRau-79" value="LOT X" style="rounded=1;whiteSpace=wrap;html=1;" parent="1" vertex="1">
          <mxGeometry x="510" y="510" width="90" height="90" as="geometry" />
        </mxCell>
        <mxCell id="Kzfv3EJHUvJdrAXewRau-80" value="LOT X" style="rounded=1;whiteSpace=wrap;html=1;" parent="1" vertex="1">
          <mxGeometry x="630" y="510" width="90" height="90" as="geometry" />
        </mxCell>
        <mxCell id="Kzfv3EJHUvJdrAXewRau-81" value="LOT X" style="rounded=1;whiteSpace=wrap;html=1;" parent="1" vertex="1">
          <mxGeometry x="750" y="390" width="90" height="90" as="geometry" />
        </mxCell>
        <mxCell id="Kzfv3EJHUvJdrAXewRau-82" value="LOT X" style="rounded=1;whiteSpace=wrap;html=1;" parent="1" vertex="1">
          <mxGeometry x="870" y="390" width="90" height="90" as="geometry" />
        </mxCell>
        <mxCell id="Kzfv3EJHUvJdrAXewRau-83" value="LOT X" style="rounded=1;whiteSpace=wrap;html=1;" parent="1" vertex="1">
          <mxGeometry x="750" y="510" width="90" height="90" as="geometry" />
        </mxCell>
        <mxCell id="Kzfv3EJHUvJdrAXewRau-84" value="LOT X" style="rounded=1;whiteSpace=wrap;html=1;" parent="1" vertex="1">
          <mxGeometry x="870" y="510" width="90" height="90" as="geometry" />
        </mxCell>
        <mxCell id="Kzfv3EJHUvJdrAXewRau-125" value="" style="rounded=0;whiteSpace=wrap;html=1;fillColor=#f8cecc;strokeColor=#b85450;" parent="1" vertex="1">
          <mxGeometry x="1040" y="50" width="510" height="270" as="geometry" />
        </mxCell>
        <mxCell id="Kzfv3EJHUvJdrAXewRau-127" value="&lt;span style=&quot;background-color: rgb(255, 255, 255);&quot;&gt;PARAMETRES DU PROJET&lt;/span&gt;" style="text;html=1;align=center;verticalAlign=middle;whiteSpace=wrap;rounded=0;" parent="1" vertex="1">
          <mxGeometry x="1040" y="20" width="510" height="30" as="geometry" />
        </mxCell>
        <mxCell id="Kzfv3EJHUvJdrAXewRau-135" value="" style="rounded=0;whiteSpace=wrap;html=1;fillColor=#dae8fc;strokeColor=#6c8ebf;" parent="1" vertex="1">
          <mxGeometry x="20" y="50" width="410" height="240" as="geometry" />
        </mxCell>
        <mxCell id="Kzfv3EJHUvJdrAXewRau-136" value="BOUTON" style="rounded=0;whiteSpace=wrap;html=1;" parent="1" vertex="1">
          <mxGeometry x="50" y="80" width="350" height="30" as="geometry" />
        </mxCell>
        <mxCell id="Kzfv3EJHUvJdrAXewRau-137" value="BOUTON AVEC ICONE" style="rounded=1;whiteSpace=wrap;html=1;" parent="1" vertex="1">
          <mxGeometry x="50" y="130" width="350" height="30" as="geometry" />
        </mxCell>
        <mxCell id="Kzfv3EJHUvJdrAXewRau-151" value="" style="rhombus;whiteSpace=wrap;html=1;" parent="1" vertex="1">
          <mxGeometry x="50" y="180" width="30" height="30" as="geometry" />
        </mxCell>
        <mxCell id="Kzfv3EJHUvJdrAXewRau-152" value="BOUTON AVEC MENU DEROULANT" style="rounded=0;whiteSpace=wrap;html=1;" parent="1" vertex="1">
          <mxGeometry x="90" y="180" width="310" height="30" as="geometry" />
        </mxCell>
        <mxCell id="Kzfv3EJHUvJdrAXewRau-153" value="CHAMP A COMPLETER" style="shape=parallelogram;perimeter=parallelogramPerimeter;whiteSpace=wrap;html=1;fixedSize=1;" parent="1" vertex="1">
          <mxGeometry x="50" y="230" width="350" height="30" as="geometry" />
        </mxCell>
        <mxCell id="Kzfv3EJHUvJdrAXewRau-154" value="LEGENDE" style="text;html=1;align=center;verticalAlign=middle;whiteSpace=wrap;rounded=0;" parent="1" vertex="1">
          <mxGeometry x="20" y="20" width="410" height="30" as="geometry" />
        </mxCell>
        <mxCell id="Kzfv3EJHUvJdrAXewRau-155" value="NOM PROJET" style="shape=parallelogram;perimeter=parallelogramPerimeter;whiteSpace=wrap;html=1;fixedSize=1;" parent="1" vertex="1">
          <mxGeometry x="1070" y="90" width="240" height="40" as="geometry" />
        </mxCell>
        <mxCell id="Kzfv3EJHUvJdrAXewRau-156" value="BUDGET" style="shape=parallelogram;perimeter=parallelogramPerimeter;whiteSpace=wrap;html=1;fixedSize=1;" parent="1" vertex="1">
          <mxGeometry x="1070" y="165" width="110" height="40" as="geometry" />
        </mxCell>
        <mxCell id="Kzfv3EJHUvJdrAXewRau-158" value="NOM RESPONSABLE" style="rounded=0;whiteSpace=wrap;html=1;" parent="1" vertex="1">
          <mxGeometry x="1130" y="240" width="160" height="40" as="geometry" />
        </mxCell>
        <mxCell id="Kzfv3EJHUvJdrAXewRau-159" value="" style="rhombus;whiteSpace=wrap;html=1;" parent="1" vertex="1">
          <mxGeometry x="1070" y="240" width="40" height="40" as="geometry" />
        </mxCell>
        <mxCell id="Kzfv3EJHUvJdrAXewRau-163" value="" style="rounded=0;whiteSpace=wrap;html=1;fillColor=#f8cecc;strokeColor=#b85450;" parent="1" vertex="1">
          <mxGeometry x="1040" y="360" width="510" height="270" as="geometry" />
        </mxCell>
        <mxCell id="Kzfv3EJHUvJdrAXewRau-164" value="&lt;span style=&quot;background-color: rgb(255, 255, 255);&quot;&gt;PARAMETRES DU LOT&lt;/span&gt;" style="text;html=1;align=center;verticalAlign=middle;whiteSpace=wrap;rounded=0;" parent="1" vertex="1">
          <mxGeometry x="1040" y="330" width="510" height="30" as="geometry" />
        </mxCell>
        <mxCell id="Kzfv3EJHUvJdrAXewRau-165" value="NOM LOT" style="shape=parallelogram;perimeter=parallelogramPerimeter;whiteSpace=wrap;html=1;fixedSize=1;" parent="1" vertex="1">
          <mxGeometry x="1070" y="400" width="240" height="40" as="geometry" />
        </mxCell>
        <mxCell id="Kzfv3EJHUvJdrAXewRau-166" value="BUDGET" style="shape=parallelogram;perimeter=parallelogramPerimeter;whiteSpace=wrap;html=1;fixedSize=1;" parent="1" vertex="1">
          <mxGeometry x="1070" y="475" width="110" height="40" as="geometry" />
        </mxCell>
        <mxCell id="Kzfv3EJHUvJdrAXewRau-167" value="NOM RESPONSABLE" style="rounded=0;whiteSpace=wrap;html=1;" parent="1" vertex="1">
          <mxGeometry x="1130" y="550" width="160" height="40" as="geometry" />
        </mxCell>
        <mxCell id="Kzfv3EJHUvJdrAXewRau-168" value="" style="rhombus;whiteSpace=wrap;html=1;" parent="1" vertex="1">
          <mxGeometry x="1070" y="550" width="40" height="40" as="geometry" />
        </mxCell>
        <mxCell id="Kzfv3EJHUvJdrAXewRau-170" value="" style="rounded=0;whiteSpace=wrap;html=1;fillColor=#f8cecc;strokeColor=#b85450;" parent="1" vertex="1">
          <mxGeometry x="1040" y="670" width="510" height="270" as="geometry" />
        </mxCell>
        <mxCell id="Kzfv3EJHUvJdrAXewRau-171" value="&lt;span style=&quot;background-color: rgb(255, 255, 255);&quot;&gt;PARAMETRES DE L&#39;ACTIVITE&lt;/span&gt;" style="text;html=1;align=center;verticalAlign=middle;whiteSpace=wrap;rounded=0;" parent="1" vertex="1">
          <mxGeometry x="1040" y="640" width="510" height="30" as="geometry" />
        </mxCell>
        <mxCell id="Kzfv3EJHUvJdrAXewRau-172" value="NOM ACTIVITE" style="shape=parallelogram;perimeter=parallelogramPerimeter;whiteSpace=wrap;html=1;fixedSize=1;" parent="1" vertex="1">
          <mxGeometry x="1070" y="710" width="240" height="40" as="geometry" />
        </mxCell>
        <mxCell id="Kzfv3EJHUvJdrAXewRau-173" value="BUDGET" style="shape=parallelogram;perimeter=parallelogramPerimeter;whiteSpace=wrap;html=1;fixedSize=1;" parent="1" vertex="1">
          <mxGeometry x="1070" y="785" width="110" height="40" as="geometry" />
        </mxCell>
        <mxCell id="Kzfv3EJHUvJdrAXewRau-174" value="NOM RESPONSABLE" style="rounded=0;whiteSpace=wrap;html=1;" parent="1" vertex="1">
          <mxGeometry x="1130" y="860" width="160" height="40" as="geometry" />
        </mxCell>
        <mxCell id="Kzfv3EJHUvJdrAXewRau-175" value="" style="rhombus;whiteSpace=wrap;html=1;" parent="1" vertex="1">
          <mxGeometry x="1070" y="860" width="40" height="40" as="geometry" />
        </mxCell>
      </root>
    </mxGraphModel>
  </diagram>
</mxfile>
